# xmcd CD database file
#
# Track frame offsets:
#	150
#	38226
#	76399
#	97401
#	126395
#	160015
#
# Disc length: 2738 seconds
#
# Revision: 0
# Processed by: cddbd v1.5.2PL0 Copyright (c) Steve Scherf et al.
# Submitted via: CDex 1.70beta2
#
DISCID=4b0ab006
DTITLE=The RH Factor - Strength
DYEAR=2004
DGENRE=Jazz
TTITLE0=Rich Man's Welfare
TTITLE1=Bob Drop
TTITLE2=Sterngth
TTITLE3=Listen Here
TTITLE4=For Fun
TTITLE5=Universe
EXTD=YEAR: 2004
EXTT0=
EXTT1=
EXTT2=
EXTT3=
EXTT4=
EXTT5=
PLAYORDER=
